<mxfile host="app.diagrams.net" modified="2023-05-28T14:46:54.873Z" agent="Mozilla/5.0 (Windows NT 10.0; Win64; x64) AppleWebKit/537.36 (KHTML, like Gecko) Chrome/113.0.0.0 Safari/537.36" etag="ZRjkChEqT8t_wkNRRrGM" version="21.2.9" type="github">
  <diagram name="Page-1" id="0OjUoEbymyfLWGog26d8">
    <mxGraphModel dx="1900" dy="623" grid="1" gridSize="10" guides="1" tooltips="1" connect="1" arrows="1" fold="1" page="1" pageScale="1" pageWidth="850" pageHeight="1100" math="0" shadow="0">
      <root>
        <mxCell id="0" />
        <mxCell id="1" parent="0" />
        <mxCell id="W0V6o4OkKNlifZUOKpuM-3" style="edgeStyle=orthogonalEdgeStyle;rounded=0;orthogonalLoop=1;jettySize=auto;html=1;entryX=0;entryY=0.5;entryDx=0;entryDy=0;entryPerimeter=0;" edge="1" parent="1" source="W0V6o4OkKNlifZUOKpuM-1" target="W0V6o4OkKNlifZUOKpuM-2">
          <mxGeometry relative="1" as="geometry" />
        </mxCell>
        <mxCell id="W0V6o4OkKNlifZUOKpuM-1" value="" style="rounded=0;whiteSpace=wrap;html=1;" vertex="1" parent="1">
          <mxGeometry x="110" y="170" width="130" height="60" as="geometry" />
        </mxCell>
        <mxCell id="W0V6o4OkKNlifZUOKpuM-2" value="" style="shape=cylinder3;whiteSpace=wrap;html=1;boundedLbl=1;backgroundOutline=1;size=15;" vertex="1" parent="1">
          <mxGeometry x="450" y="160" width="60" height="80" as="geometry" />
        </mxCell>
        <mxCell id="W0V6o4OkKNlifZUOKpuM-5" value="Items" style="text;html=1;strokeColor=none;fillColor=none;align=center;verticalAlign=middle;whiteSpace=wrap;rounded=0;" vertex="1" parent="1">
          <mxGeometry x="145" y="185" width="60" height="30" as="geometry" />
        </mxCell>
        <mxCell id="W0V6o4OkKNlifZUOKpuM-12" style="edgeStyle=orthogonalEdgeStyle;rounded=0;orthogonalLoop=1;jettySize=auto;html=1;entryX=0.5;entryY=0;entryDx=0;entryDy=0;" edge="1" parent="1" source="W0V6o4OkKNlifZUOKpuM-6" target="W0V6o4OkKNlifZUOKpuM-10">
          <mxGeometry relative="1" as="geometry" />
        </mxCell>
        <mxCell id="W0V6o4OkKNlifZUOKpuM-6" value="DB" style="text;html=1;strokeColor=none;fillColor=none;align=center;verticalAlign=middle;whiteSpace=wrap;rounded=0;" vertex="1" parent="1">
          <mxGeometry x="450" y="200" width="60" height="30" as="geometry" />
        </mxCell>
        <mxCell id="W0V6o4OkKNlifZUOKpuM-8" style="edgeStyle=orthogonalEdgeStyle;rounded=0;orthogonalLoop=1;jettySize=auto;html=1;entryX=0.5;entryY=1;entryDx=0;entryDy=0;" edge="1" parent="1" source="W0V6o4OkKNlifZUOKpuM-7" target="W0V6o4OkKNlifZUOKpuM-1">
          <mxGeometry relative="1" as="geometry" />
        </mxCell>
        <mxCell id="W0V6o4OkKNlifZUOKpuM-9" style="edgeStyle=orthogonalEdgeStyle;rounded=0;orthogonalLoop=1;jettySize=auto;html=1;entryX=0.5;entryY=1;entryDx=0;entryDy=0;entryPerimeter=0;" edge="1" parent="1" source="W0V6o4OkKNlifZUOKpuM-7" target="W0V6o4OkKNlifZUOKpuM-2">
          <mxGeometry relative="1" as="geometry" />
        </mxCell>
        <mxCell id="W0V6o4OkKNlifZUOKpuM-7" value="Actor" style="shape=umlActor;verticalLabelPosition=bottom;verticalAlign=top;html=1;outlineConnect=0;" vertex="1" parent="1">
          <mxGeometry x="160" y="360" width="30" height="60" as="geometry" />
        </mxCell>
        <mxCell id="W0V6o4OkKNlifZUOKpuM-15" style="edgeStyle=orthogonalEdgeStyle;rounded=0;orthogonalLoop=1;jettySize=auto;html=1;entryX=0.5;entryY=0;entryDx=0;entryDy=0;" edge="1" parent="1" source="W0V6o4OkKNlifZUOKpuM-10" target="W0V6o4OkKNlifZUOKpuM-13">
          <mxGeometry relative="1" as="geometry" />
        </mxCell>
        <mxCell id="W0V6o4OkKNlifZUOKpuM-10" value="" style="rounded=1;whiteSpace=wrap;html=1;" vertex="1" parent="1">
          <mxGeometry x="520" y="290" width="120" height="60" as="geometry" />
        </mxCell>
        <mxCell id="W0V6o4OkKNlifZUOKpuM-11" value="Calculation" style="text;html=1;strokeColor=none;fillColor=none;align=center;verticalAlign=middle;whiteSpace=wrap;rounded=0;" vertex="1" parent="1">
          <mxGeometry x="550" y="305" width="60" height="30" as="geometry" />
        </mxCell>
        <mxCell id="W0V6o4OkKNlifZUOKpuM-18" style="edgeStyle=orthogonalEdgeStyle;rounded=0;orthogonalLoop=1;jettySize=auto;html=1;entryX=1;entryY=0.5;entryDx=0;entryDy=0;" edge="1" parent="1" source="W0V6o4OkKNlifZUOKpuM-13" target="W0V6o4OkKNlifZUOKpuM-16">
          <mxGeometry relative="1" as="geometry" />
        </mxCell>
        <mxCell id="W0V6o4OkKNlifZUOKpuM-13" value="" style="rounded=0;whiteSpace=wrap;html=1;" vertex="1" parent="1">
          <mxGeometry x="520" y="480" width="120" height="60" as="geometry" />
        </mxCell>
        <mxCell id="W0V6o4OkKNlifZUOKpuM-14" value="Bill Generation" style="text;html=1;strokeColor=none;fillColor=none;align=center;verticalAlign=middle;whiteSpace=wrap;rounded=0;" vertex="1" parent="1">
          <mxGeometry x="550" y="495" width="60" height="30" as="geometry" />
        </mxCell>
        <mxCell id="W0V6o4OkKNlifZUOKpuM-24" style="edgeStyle=orthogonalEdgeStyle;rounded=0;orthogonalLoop=1;jettySize=auto;html=1;entryX=0.5;entryY=1;entryDx=0;entryDy=0;" edge="1" parent="1" source="W0V6o4OkKNlifZUOKpuM-16" target="W0V6o4OkKNlifZUOKpuM-21">
          <mxGeometry relative="1" as="geometry" />
        </mxCell>
        <mxCell id="W0V6o4OkKNlifZUOKpuM-16" value="" style="rhombus;whiteSpace=wrap;html=1;" vertex="1" parent="1">
          <mxGeometry x="320" y="470" width="80" height="80" as="geometry" />
        </mxCell>
        <mxCell id="W0V6o4OkKNlifZUOKpuM-28" style="edgeStyle=orthogonalEdgeStyle;rounded=0;orthogonalLoop=1;jettySize=auto;html=1;entryX=1;entryY=0.5;entryDx=0;entryDy=0;" edge="1" parent="1" source="W0V6o4OkKNlifZUOKpuM-17" target="W0V6o4OkKNlifZUOKpuM-27">
          <mxGeometry relative="1" as="geometry" />
        </mxCell>
        <mxCell id="W0V6o4OkKNlifZUOKpuM-17" value="Pay" style="text;html=1;strokeColor=none;fillColor=none;align=center;verticalAlign=middle;whiteSpace=wrap;rounded=0;" vertex="1" parent="1">
          <mxGeometry x="330" y="495" width="60" height="30" as="geometry" />
        </mxCell>
        <mxCell id="W0V6o4OkKNlifZUOKpuM-19" value="Y" style="text;html=1;strokeColor=none;fillColor=none;align=center;verticalAlign=middle;whiteSpace=wrap;rounded=0;" vertex="1" parent="1">
          <mxGeometry x="350" y="460" width="60" height="30" as="geometry" />
        </mxCell>
        <mxCell id="W0V6o4OkKNlifZUOKpuM-20" value="N" style="text;html=1;strokeColor=none;fillColor=none;align=center;verticalAlign=middle;whiteSpace=wrap;rounded=0;" vertex="1" parent="1">
          <mxGeometry x="290" y="520" width="60" height="30" as="geometry" />
        </mxCell>
        <mxCell id="W0V6o4OkKNlifZUOKpuM-21" value="" style="rounded=0;whiteSpace=wrap;html=1;" vertex="1" parent="1">
          <mxGeometry x="300" y="400" width="120" height="60" as="geometry" />
        </mxCell>
        <mxCell id="W0V6o4OkKNlifZUOKpuM-22" value="Close Deal" style="text;html=1;strokeColor=none;fillColor=none;align=center;verticalAlign=middle;whiteSpace=wrap;rounded=0;" vertex="1" parent="1">
          <mxGeometry x="330" y="415" width="60" height="30" as="geometry" />
        </mxCell>
        <mxCell id="W0V6o4OkKNlifZUOKpuM-33" style="edgeStyle=orthogonalEdgeStyle;rounded=0;orthogonalLoop=1;jettySize=auto;html=1;entryX=0.5;entryY=0;entryDx=0;entryDy=0;entryPerimeter=0;" edge="1" parent="1" source="W0V6o4OkKNlifZUOKpuM-25" target="W0V6o4OkKNlifZUOKpuM-2">
          <mxGeometry relative="1" as="geometry">
            <Array as="points">
              <mxPoint x="-10" y="140" />
              <mxPoint x="480" y="140" />
            </Array>
          </mxGeometry>
        </mxCell>
        <mxCell id="W0V6o4OkKNlifZUOKpuM-25" value="" style="rounded=0;whiteSpace=wrap;html=1;" vertex="1" parent="1">
          <mxGeometry x="-70" y="250" width="120" height="60" as="geometry" />
        </mxCell>
        <mxCell id="W0V6o4OkKNlifZUOKpuM-26" value="Add amount in account" style="text;html=1;strokeColor=none;fillColor=none;align=center;verticalAlign=middle;whiteSpace=wrap;rounded=0;" vertex="1" parent="1">
          <mxGeometry x="-40" y="265" width="60" height="30" as="geometry" />
        </mxCell>
        <mxCell id="W0V6o4OkKNlifZUOKpuM-31" style="edgeStyle=orthogonalEdgeStyle;rounded=0;orthogonalLoop=1;jettySize=auto;html=1;entryX=0.5;entryY=1;entryDx=0;entryDy=0;" edge="1" parent="1" source="W0V6o4OkKNlifZUOKpuM-27" target="W0V6o4OkKNlifZUOKpuM-25">
          <mxGeometry relative="1" as="geometry" />
        </mxCell>
        <mxCell id="W0V6o4OkKNlifZUOKpuM-36" style="edgeStyle=orthogonalEdgeStyle;rounded=0;orthogonalLoop=1;jettySize=auto;html=1;entryX=0.5;entryY=0;entryDx=0;entryDy=0;" edge="1" parent="1" source="W0V6o4OkKNlifZUOKpuM-27" target="W0V6o4OkKNlifZUOKpuM-35">
          <mxGeometry relative="1" as="geometry" />
        </mxCell>
        <mxCell id="W0V6o4OkKNlifZUOKpuM-27" value="" style="rhombus;whiteSpace=wrap;html=1;" vertex="1" parent="1">
          <mxGeometry x="125" y="470" width="80" height="80" as="geometry" />
        </mxCell>
        <mxCell id="W0V6o4OkKNlifZUOKpuM-29" value="Trusted?" style="text;html=1;strokeColor=none;fillColor=none;align=center;verticalAlign=middle;whiteSpace=wrap;rounded=0;" vertex="1" parent="1">
          <mxGeometry x="135" y="495" width="60" height="30" as="geometry" />
        </mxCell>
        <mxCell id="W0V6o4OkKNlifZUOKpuM-30" value="Y" style="text;html=1;strokeColor=none;fillColor=none;align=center;verticalAlign=middle;whiteSpace=wrap;rounded=0;" vertex="1" parent="1">
          <mxGeometry x="90" y="480" width="60" height="30" as="geometry" />
        </mxCell>
        <mxCell id="W0V6o4OkKNlifZUOKpuM-34" value="N" style="text;html=1;strokeColor=none;fillColor=none;align=center;verticalAlign=middle;whiteSpace=wrap;rounded=0;" vertex="1" parent="1">
          <mxGeometry x="160" y="530" width="60" height="30" as="geometry" />
        </mxCell>
        <mxCell id="W0V6o4OkKNlifZUOKpuM-35" value="" style="rounded=0;whiteSpace=wrap;html=1;" vertex="1" parent="1">
          <mxGeometry x="105" y="640" width="120" height="60" as="geometry" />
        </mxCell>
        <mxCell id="W0V6o4OkKNlifZUOKpuM-37" value="Do What I don&#39;t know." style="text;html=1;strokeColor=none;fillColor=none;align=center;verticalAlign=middle;whiteSpace=wrap;rounded=0;" vertex="1" parent="1">
          <mxGeometry x="115" y="655" width="100" height="30" as="geometry" />
        </mxCell>
      </root>
    </mxGraphModel>
  </diagram>
</mxfile>
